/* XPM */
static char *collect1703771926[] = {
/* columns rows colors chars-per-pixel */
"64 64 11 1 ",
"  c black",
". c #110C0A",
"X c #33251F",
"o c #543E33",
"O c #654A3D",
"+ c #A97B66",
"@ c #BA8870",
"# c #CA947A",
"$ c #DBA085",
"% c #ECAD8F",
"& c #FDB999",
/* pixels */
"                                                                ",
"                                                                ",
"                                                                ",
"                                                                ",
"                                                                ",
"                                                                ",
"                                                                ",
"                                                                ",
"                                                                ",
"                                                                ",
"                                                                ",
"                                                                ",
"                                                                ",
"                                                                ",
"                                                                ",
"                                                                ",
"                                                                ",
"                                                                ",
"                         X@@@@@@@@@@$%X                         ",
"                        X%&&&&&&&&&&&&%X                        ",
"                       X%&&&&&&&&&&&&&&%X                       ",
"                      X%&&&&&&&&&&&&&&&&%X                      ",
"                     X%&&&&&&&&&&&&&&&&&&%X                     ",
"                    .$&&&&&&&&&&&&&&&&&&&&%o                    ",
"                   .#&&&&&&&&&&&&&&&&&&&&&&&O                   ",
"                  .#&&&&&&&&&&&&&&&&&&&&&&&&&O                  ",
"                  +&&&&&&&&&&&&&&&&&&&&&&&&&&@                  ",
"                  @&&&&&&&&&&&&&&&&&&&&&&&&&&#                  ",
"                  @&&&&&&&&&&&&&&&&&&&&&&&&&&&                  ",
"                  @&&&&&&&&&&&&&&&&&&&&&&&&&&&                  ",
"                  @&&&&&&&&&&&&&&&&&&&&&&&&&&&                  ",
"                  @&&&&&&&&&&&&&&&&&&&&&&&&&&&                  ",
"                  @&&&&&&&&&&&&&&&&&&&&&&&&&&&                  ",
"                  @&&&&&&&&&&&&&&&&&&&&&&&&&&&                  ",
"                  @&&&&&&&&&&&&&&&&&&&&&&&&&&&                  ",
"                  @&&&&&&&&&&&&&&&&&&&&&&&&&&&                  ",
"                  @&&&&&&&&&&&&&&&&&&&&&&&&&&&                  ",
"                  @&&&&&&&&&&&&&&&&&&&&&&&&&&%                  ",
"                  X%&&&&&&&&&&&&&&&&&&&&&&&&%X                  ",
"                   X%&&&&&&&&&&&&&&&&&&&&&&%X                   ",
"                    X%&&&&&&&&&&&&&&&&&&&&%X                    ",
"                     X%&&&&&&&&&&&&&&&&&&%X                     ",
"                      X$&&&&&&&&&&&&&&&&%X                      ",
"                       .#&&&&&&&&&&&&&&&o                       ",
"                        .#&&&&&&&&&&&&&O                        ",
"                         .#%@@@@@@@@@@O                         ",
"                                                                ",
"                                                                ",
"                                                                ",
"                                                                ",
"                                                                ",
"                                                                ",
"                                                                ",
"                                                                ",
"                                                                ",
"                                                                ",
"                                                                ",
"                                                                ",
"                                                                ",
"                                                                ",
"                                                                ",
"                                                                ",
"                                                                ",
"                                                                "
};
