/* XPM */
static char *exit1703746387[] = {
/* columns rows colors chars-per-pixel */
"64 64 7 1 ",
"  c black",
". c #131141",
"X c #444444",
"o c #362FB2",
"O c #4940F3",
"+ c #BBBBBB",
"@ c white",
/* pixels */
"                                                                ",
"                                                                ",
"                                                                ",
"                                                                ",
"                                                                ",
"     OOOOOOOOOOOOOOOOOOOOOOOOOOOOOOOOOOOOOOOOOOOOOOOOOOOOOO     ",
"     OOOOOOOOOOOOOOOOOOOOOOOOOOOOOOOOOOOOOOOOOOOOOOOOOOOOOO     ",
"     OOOOOOOOOOOOOOOOOOOOOOOOOOOOOOOOOOOOOOOOOOOOOOOOOOOOOO     ",
"     OOO                                                OOO     ",
"     OOO                                                OOO     ",
"     OOO                                                OOO     ",
"     OOO   OOOOOOOOOOOOOOOOOOOOOOOOOOOOOOOOOOOOOOOOOO   OOO     ",
"     OOO   OOOOOOOOOOOOOOOOOOOOOOOOOOOOOOOOOOOOOOOOOO   OOO     ",
"     OOO   OOOOOOOOOOOOOOOOOOOOOOOOOOOOOOOOOOOOOOOOOO   OOO     ",
"     OOO   OOO                                    OOO   OOO     ",
"     OOO   OOO                                    OOO   OOO     ",
"     OOO   OOO                                    OOO   OOO     ",
"     OOO   OOO   @@@@@@@@@@@@@@@@@@@@@@@@@@@@@@   OOO   OOO     ",
"     OOO   OOO   @@@@@@@@@@@@@@@@@@@@@@@@@@@@@@   OOO   OOO     ",
"     OOO   OOO   @@@@@@@@@@@@@@@@@@@@@@@@@@@@@@   OOO   OOO     ",
"     OOO   OOO   @@@                        @@@   OOO   OOO     ",
"     OOO   OOO   @@@                        @@@   OOO   OOO     ",
"     OOO   OOO   @@@                        @@@   OOO   OOO     ",
"     OOO   OOO   @@@                        @@@   OOO   OOO     ",
"     OOO   OOO   @@@                        @@@   OOO   OOO     ",
"     OOO   OOO   @@@                        @@@   OOO   OOO     ",
"     OOO   OOO   @@@                        @@@   OOO   OOO     ",
"     OOO   OOO   @@@                        @@@   OOO   OOO     ",
"     OOO   OOO   @@@                        @@@   OOO   OOO     ",
"     OOO   OOO   @@@                        @@@   OOO   OOO     ",
"     OOO   OOO   @@@                        @@@   OOO   OOO     ",
"     OOO   OOO   @@@                        @@@   OOO   OOO     ",
"     OOO   OOO   @@@                        @@@   OOO   OOO     ",
"     OOO   OOO   @@@                        @@@   OOO   OOO     ",
"     OOO   OOO   @@@                        @@@   OOO   OOO     ",
"     OOO   OOO   @@@                        @@@   OOO   OOO     ",
"     OOO   OOO   @@@                        @@@   OOO   OOO     ",
"     OOO   OOO   @@@                        @@@   OOO   OOO     ",
"     OOO   OOO   @@@                        @@@   OOO   OOO     ",
"     OOO   OOO   @@@                        @@@   OOO   OOO     ",
"     OOO   OOO   @@@                        @@@   OOO   OOO     ",
"     OOO   OOO   @@@                        @@@   OOO   OOO     ",
"     OOO   OOO   @@@                        @@@   OOO   OOO     ",
"     OOO   OOO   @@@                        @@@   OOO   OOO     ",
"     OOO   OOO   @@@++++++++++++++++++++++++@@@   OOO   OOO     ",
"     OOO   OOO   @@@@@@@@@@@@@@@@@@@@@@@@@@@@@@   OOO   OOO     ",
"     OOO   OOO   @@@@@@@@@@@@@@@@@@@@@@@@@@@@@@   OOO   OOO     ",
"     OOO   OOO   XXXXXXXXXXXXXXXXXXXXXXXXXXXXXX   OOO   OOO     ",
"     OOO   OOO                                    OOO   OOO     ",
"     OOO   OOO                                    OOO   OOO     ",
"     OOO   OOOooooooooooooooooooooooooooooooooooooOOO   OOO     ",
"     OOO   OOOOOOOOOOOOOOOOOOOOOOOOOOOOOOOOOOOOOOOOOO   OOO     ",
"     OOO   OOOOOOOOOOOOOOOOOOOOOOOOOOOOOOOOOOOOOOOOOO   OOO     ",
"     OOO   ..........................................   OOO     ",
"     OOO                                                OOO     ",
"     OOO                                                OOO     ",
"     OOOooooooooooooooooooooooooooooooooooooooooooooooooOOO     ",
"     OOOOOOOOOOOOOOOOOOOOOOOOOOOOOOOOOOOOOOOOOOOOOOOOOOOOOO     ",
"     OOOOOOOOOOOOOOOOOOOOOOOOOOOOOOOOOOOOOOOOOOOOOOOOOOOOOO     ",
"     ......................................................     ",
"                                                                ",
"                                                                ",
"                                                                ",
"                                                                "
};
