/* XPM */
static char *e2691c33032b4467bd01e725d05bd986KlzUNp2Bt15Ltwk4[] = {
/* columns rows colors chars-per-pixel */
"64 64 227 2 ",
"   c #020201",
".  c #0A0300",
"X  c #040A01",
"o  c #0B0B00",
"O  c #01010B",
"+  c #0A040C",
"@  c #050A0A",
"#  c #0B0A0C",
"$  c #110500",
"%  c #120C01",
"&  c #130909",
"*  c #071200",
"=  c #0D1200",
"-  c #091009",
";  c #141201",
":  c #1A1300",
">  c #151900",
",  c #1B1A00",
"<  c #020113",
"1  c #0A0313",
"2  c #040914",
"3  c #0C0B13",
"4  c #02001B",
"5  c #08071B",
"6  c #120815",
"7  c #0F121B",
"8  c #131217",
"9  c #211500",
"0  c #221D00",
"q  c #2A1E00",
"w  c #1C2300",
"e  c #242300",
"r  c #2A2300",
"t  c #2E2C00",
"y  c #322D00",
"u  c #312000",
"i  c #2F3400",
"p  c #2B3700",
"a  c #323300",
"s  c #3A3700",
"d  c #3B3B00",
"f  c #020122",
"g  c #0C002C",
"h  c #130C22",
"j  c #413E00",
"k  c #403300",
"l  c #3C4300",
"z  c #3A4504",
"x  c #414500",
"c  c #4B4300",
"v  c #444900",
"b  c #4B4B00",
"n  c #504A00",
"m  c #545100",
"M  c #595300",
"N  c #565A00",
"B  c #585C00",
"V  c #4B5600",
"C  c #615400",
"Z  c #5D6300",
"A  c #636201",
"S  c #6C6B00",
"D  c #6C6906",
"F  c #776C00",
"G  c #756B0C",
"H  c #6C7206",
"J  c #737A00",
"K  c #797B03",
"L  c #7B770E",
"P  c #696714",
"I  c #7D7B14",
"U  c #5C5C20",
"Y  c #837C02",
"T  c #807A0C",
"R  c #7C8220",
"E  c #838300",
"W  c #8A8502",
"Q  c #8A8C0C",
"!  c #989908",
"~  c #868519",
"^  c #938D18",
"/  c #959311",
"(  c #A79F00",
")  c #A09C1E",
"_  c #9CA315",
"`  c #ABA504",
"'  c #B1AE0A",
"]  c #A7AB17",
"[  c #B5AD16",
"{  c #AFB314",
"}  c #B2B814",
"|  c #888728",
" . c #95922B",
".. c #A39A26",
"X. c #A89F3A",
"o. c #ABB229",
"O. c #B5B321",
"+. c #B7B82B",
"@. c #B4B431",
"#. c #B9BA39",
"$. c #A6A534",
"%. c #C2BE36",
"&. c #BFC41F",
"*. c #BCCC0A",
"=. c #B8C02C",
"-. c #CFD307",
";. c #DADC00",
":. c #D3D800",
">. c #CAC815",
",. c #D8D616",
"<. c #CCCB0B",
"1. c #E3DD01",
"2. c #ECDF02",
"3. c #E5DB05",
"4. c #DDE301",
"5. c #DDE50A",
"6. c #DCE419",
"7. c #E4E401",
"8. c #EBE501",
"9. c #E3EA01",
"0. c #EDEB01",
"q. c #E3E20B",
"w. c #EAE60B",
"e. c #E5EB0B",
"r. c #EDEC0B",
"t. c #F2E702",
"y. c #F3EF01",
"u. c #F9EC02",
"i. c #F2E60C",
"p. c #F3EC0C",
"a. c #F9EB0A",
"s. c #EEF102",
"d. c #ECF40C",
"f. c #EEF80C",
"g. c #F2F101",
"h. c #FAF403",
"j. c #F4F901",
"k. c #FBFA03",
"l. c #F4F30A",
"z. c #FAF40B",
"x. c #F6FB0C",
"c. c #FDFB0B",
"v. c #E5E412",
"b. c #E7EA14",
"n. c #ECEC13",
"m. c #E5EB1D",
"M. c #EBEC1C",
"N. c #EBE61A",
"B. c #F2EC12",
"V. c #FAEA13",
"C. c #F3EC1B",
"Z. c #FEED1C",
"A. c #EDF112",
"S. c #EEF61B",
"D. c #F4F213",
"F. c #FBF513",
"G. c #F6FB12",
"H. c #FEFD13",
"J. c #F4F31A",
"K. c #FCF41D",
"L. c #FFFF1A",
"P. c #F4FA1A",
"I. c #CFCE24",
"U. c #D2CD2C",
"Y. c #D6CF26",
"T. c #C9D42A",
"R. c #D6D727",
"E. c #CACA34",
"W. c #D3CC38",
"Q. c #CED639",
"!. c #D6D736",
"~. c #E3DE3A",
"^. c #DCE32A",
"/. c #DDE625",
"(. c #DFE734",
"). c #EBEC24",
"_. c #E5E62C",
"`. c #E5EB2B",
"'. c #ECED2C",
"]. c #E5E424",
"[. c #F2EC23",
"{. c #F4E92A",
"}. c #ECF427",
"|. c #EAF22E",
" X c #F5F423",
".X c #FFF622",
"XX c #F3F32A",
"oX c #F4FB2A",
"OX c #FEFB2B",
"+X c #F9FA25",
"@X c #EBE735",
"#X c #E5EA34",
"$X c #E6EB3C",
"%X c #EBEB39",
"&X c #EBEB36",
"*X c #F4ED34",
"=X c #F0E734",
"-X c #EFF138",
";X c #F3F333",
":X c #FEFF34",
">X c #F5F43B",
",X c #F5FB3C",
"<X c #FCFD3C",
"1X c #F8F838",
"2X c #B2B049",
"3X c #B9C147",
"4X c #C8C645",
"5X c #DBDC41",
"6X c #D8D749",
"7X c #D1CF50",
"8X c #E5D743",
"9X c #DDE055",
"0X c #ECEC45",
"qX c #E6E847",
"wX c #F3E949",
"eX c #F4F442",
"rX c #FFFD42",
"tX c #FEFF4D",
"yX c #F4F64B",
"uX c #E8E856",
"iX c #EEF750",
"pX c #FFFF5D",
"aX c #F6F552",
"sX c #CACC69",
"dX c #D9DD6E",
"fX c #FEFF62",
"gX c #FAFD6E",
/* pixels */
"    O O < O O O               O < < O   X     =     .         . . . . . . . . X         < 4 f f 4 < < O     X X     O O O       ",
"    O O O O O O                 O O O       o           o ; > > c m A G H A N b i , X   X o     8       X           O           ",
"                                  8 #   # #     . . ; a A _ Q.yX^._.'.|.|.|.`./.(.qXQ.! l = * >     o = X   O 4 < O         O O ",
"                                8     &     % . y P X.9XyXoXS.f.x.g.0.9.9.s.j.x.G.e.5.}.<X^.! B > > o       5 < < O         O < ",
"                            O O O 6 .   . . y  .7XuXyX;Xe.4.4.9.0.y.g.g.g.g.g.s.s.s.9.e.b.m.).#X&.Z % o %     3     O O O O O   ",
"                        O O O O + . . , y K Q.qX%X).b.0.g.k.c.c.y.u.u.h.h.g.y.0.7.0.l.F.J.C.M.M.m.eX%.M % % %         O O O O   ",
"                    O O O O     % . . j +.tXoX9.l.0.8.0.y.a.p.i.a.u.t.t.t.y.y.g.z.h.y.8.q.q.N.n.D.v.&XqX^ 0 . ;             O O ",
"                O O O O         . r ^ uX1Xq.9.j.s.g.h.h.u.a.Z.Z.a.u.u.u.u.y.y.y.0.0.y.l.F.K.B.p.y.0.w.XXyX4XA . .           O O ",
"O O           O < < O O     o   a O.aX'.n.s.s.g.g.g.y.u.u.a.V.a.a.y.y.y.y.y.y.y.g.g.y.g.y.y.y.y.y.8.h.l.5.>X6X~ o     ;     #   ",
"O O         O O < 5 O   o     l O.'.XX4.0.j.0.g.g.y.y.u.u.a.a.u.8.0.g.g.g.y.y.g.g.s.g.s.g.g.g.g.h.h.0.0.c.P.^.6X| r         o   ",
"+ O O       O < < O     > X x #.eXOXr.7.c.g.8.y.y.y.y.u.u.u.u.u.0.g.l.l.l.g.l.l.g.s.g.s.s.s.s.g.0.y.y.0.j.9.6.iXdXU . 1 1       ",
"+ O         O O < O     X d @.pXN.B.0.0.c.g.8.h.y.y.y.y.y.u.u.g.g.g.s.0.s.s.s.s.s.s.s.s.g.s.g.g.y.y.c.k.;.A.<XQ.H e   < 1     X ",
"            O O O #   , e o.(.XXM.K.D.0.0.0.g.k.g.y.y.y.y.g.g.g.g.0.0.s.g.g.g.0.g.g.g.g.g.g.g.g.z.8.h.g.7.oX5X~ o     + O       ",
"              O   %   o Q $X X7.D.F.z.0.0.g.g.8.y.y.y.y.y.g.g.g.0.g.g.k.c.z.h.g.y.g.g.g.g.g.g.g.y.t.1.p.:XI.A : $ & & # +       ",
"                    , d qX).G.g.0.0.y.h.h.h.g.7.p.B.B.p.s.s.s.g.y.l.z.0.1.1.i.K.B.p.a.a.y.y.y.g.h.z.D.;XU.F : . . O < < O +     ",
"                    t 6X&XK.;.h.g.0.y.h.y.0.l.F.p.B.p.p.s.s.s.g.g.J.].>.' ' U.>XC.B.B.p.a.a.a.p.r.q.>XW.M . . $   # < < < O     ",
".     O O       . . ` n.D.y.0.y.y.g.g.g.g.y.y.y.y.y.y.y.g.g.g.g.0.OXW , X * p 3X'.7.V.F.2.a.OX).,.pX7Xb . . .                   ",
".   O < O       . k <.h.y.h.y.g.y.y.y.y.y.y.y.y.y.y.y.y.y.y.y.y.h.<.y o X @ X l /.H.u.3.z.z.q.6.fXo.x o . % O                 O ",
"    O < O       $ | ).h.0.h.y.z.y.y.y.y.y.y.y.y.y.y.y.y.y.y.y.y.8.( . + f <   w ,.g.u.u.c.0.4.oX=.v o   %   O 1 O             O ",
"    O O @ @     y 7X Xg.y.h.y.g.y.y.y.y.y.y.y.y.y.y.y.y.y.y.y.y.F.` . 6 4 3 X e v.1.u.F.0.l.d.*.a o . %   O O <                 ",
"  . O O @ X     G aXr.y.g.h.8.g.y.y.y.y.y.y.y.y.y.y.y.y.y.y.y.y.H.,.c .     o S C.y.a.i.M.1X' p X   . . O < 5 O                 ",
"O # O   X     ; @.1X8.y.c.g.y.h.y.y.y.y.y.y.y.y.y.y.y.y.y.y.y.y.8.+XO.M t d A ~.r.z.B.{.wX] a X .     O < 1 1 O                 ",
"O 1 O   X     j !.D.y.y.c.0.g.h.y.y.y.y.y.y.y.y.y.y.y.y.y.y.y.g.8.G.).R.#XR.]. X8.p.{.8XX.y   3   O O 1 5 < < O                 ",
"< 1 O   o   ; P &X7.c.y.h.8.g.g.y.y.y.y.y.y.y.y.y.y.y.y.y.y.y.g.h.s.e.J.P.:.L.8.y.[.wX..q   4 4 O # O O < O O @               O ",
"1 < O         2X).g.y.y.y.y.y.y.y.y.y.y.y.y.y.y.y.y.y.y.y.y.y.g.0.L.d.4.G.s.4.g.p.*XQ 9 .   O 2     O                       O O ",
"< O         , 7XM.g.y.y.y.y.y.y.y.y.y.y.y.y.y.y.y.y.y.y.y.y.y.g.s.0.0.l.G.x.g.p.].W q .   O                               O O O ",
"O O O       a uXn.g.y.u.y.y.y.y.y.y.y.y.y.y.y.y.y.y.y.y.y.y.y.g.j.9.j.j.4.D.OXR.Y : . .     X                             O O O ",
"    @       b 0Xn.g.u.u.u.y.y.p.y.y.y.y.y.y.y.y.y.y.y.y.y.y.y.g.s.j.k.0.q.;XY.Y : . . ;     X                               O O ",
"            B %Xn.y.u.u.y.y.p.p.y.y.y.y.y.y.y.y.y.y.y.y.y.y.y.g.s.s.s.l.<X!.S .   O         .                                   ",
"        O . S `.C.a.u.u.y.y.p.B.y.y.y.y.y.y.y.y.y.y.y.y.y.y.y.g.s.0.g. XE.S ;   < f     @ O O 6                   O O           ",
"        1   J ).C.B.u.u.y.y.p.B.y.y.y.y.y.y.y.y.y.y.y.y.y.y.y.g.j.0. XU.C . . o O <   X 2 < < 1 O               O O O O         ",
"    #   O   J m.[.C.a.u.y.y.p.p.y.y.y.y.y.y.y.y.y.y.y.y.y.y.y.g.k.8.M.` 9 . ;     O     O 1 1 O O             O O O O           ",
"X   O O   X J }.=X{.V.u.y.y.g.g.g.y.y.y.y.y.y.y.y.y.y.y.y.y.y.y.u.8.L.m.Z o X             1 6                 O O O             ",
"    <     X H `.@X{.V.u.y.y.g.g.g.y.y.y.y.y.y.y.y.y.y.y.y.y.y.y.u.h.7.n.$XZ X X   X @ @ #     .                                 ",
"  @ O   X X Z #X'.[.p.y.y.y.g.g.g.y.y.y.y.y.y.y.y.y.y.y.y.y.y.y.y.u.7.).tXE.V X   @ O O @     O                                 ",
"  # O   o X v 0X).B.y.y.y.y.g.g.g.y.y.y.y.y.y.y.y.y.y.y.y.y.y.y.y.8..X[.,.,XT.l X     O                                         ",
"  X     o   t uXM.g.y.y.y.y.g.g.g.y.y.y.y.y.y.y.y.y.y.y.y.y.y.g.g.z.C.N.J.S.6.T.d     h O         O O                           ",
"        X   > 7XM.g.g.g.y.y.g.g.g.y.y.y.y.y.y.y.y.y.y.y.y.y.y.y.0.c.w.w.L.s.4.:XO.t . # O O     O O O O                         ",
"               .M.g.g.g.g.g.y.g.g.y.y.y.y.y.y.y.y.y.y.y.y.y.y.y.0.0.g.0.8.g.l.q.rX! t     O     O O O O                         ",
"          o   P ).s.g.g.g.g.y.y.y.y.y.y.y.y.y.y.y.y.y.y.y.y.y.y.D.l.j.g.0.g.h.0.3.eX/ ;         O O O O                       O ",
"            o , #X:.c.0.0.g.l.8.y.y.y.y.y.y.y.y.y.y.y.y.y.y.y.y.r.s.g.g.g.y.y.y.y.v.eXQ =       O O @ 3                       O ",
"              ; { b.z.g.g.h.p.r.y.y.y.y.y.y.y.y.y.y.y.y.y.y.y.g.s.s.g.g.g.y.u.y.y.L.v.R.K o X                                   ",
"                A %XM.l.h.g.0.l.y.y.y.y.y.y.y.y.y.y.y.y.y.y.y.g.g.g.g.g.g.g.y.y.g.0.s. XR.S .               X                   ",
"                r %.*XB.0.y.0.F.y.y.y.y.y.y.y.y.y.y.y.y.y.y.y.g.g.g.y.y.g.g.g.y.y.1.j.0.S.U.n .     X X                         ",
"        O O     . G wX[.0.y.l.l.y.y.y.y.y.y.y.y.y.y.y.y.y.y.y.g.g.g.y.p.y.g.g.g.0.c.7.g.l.XXW.c       X         O O O           ",
"        O O     . u E.{.l.g.z.8.y.y.y.y.y.y.y.y.y.y.y.y.y.y.y.g.g.g.y.p.y.g.g.g.g.0.g.h.7.K.1X[ i X           O O O O O         ",
"        O O     . $ F ,.D.h.g.0.y.y.y.y.y.y.y.y.y.y.y.y.y.y.y.y.y.y.y.y.p.p.s.s.j.;.H.p.3.K.8.*X .z X         O < O O O         ",
"O       O O     1 . 9 [ N.0.g.g.y.y.y.y.y.y.y.g.y.y.y.y.y.y.y.y.y.y.y.y.p.p.g.g.0.k.1.p..X2.u.C.gXR ,           O O O O         ",
"O O               % . s U.<X7.g.u.a.a.u.h.h.y.y.y.y.y.y.y.g.g.g.y.y.y.y.y.a.y.y.y.y.a.a.p.a.u.a.M.%X) : . . .         O O       ",
"O O         O O @   . 0 A Y.:X7.H.t.2.y.h.u.y.h.y.y.y.y.y.g.g.g.y.y.y.y.y.y.y.y.y.y.y.y.y.y.y.y.g.D.Y.^ . .           O         ",
"O           O O 1     . % E 0X[.1.y.h.g.y.g.h.y.a.p.p.a.y.g.g.g.g.p.y.y.y.y.y.y.g.g.g.g.g.g.g.g.0.l.XXqXK o o                   ",
"              O < 1     . t W eXw.g.h.g.y.y.y.t.a.p.p.a.y.y.g.g.g.g.g.g.g.g.g.g.g.g.g.s.g.g.g.g.g.8.l.}.qXm o                   ",
"              O < 5 O   % . 0 ) rXr.7.g.g.0.0.h.y.y.y.y.y.y.y.g.g.s.s.s.s.s.s.s.g.s.g.s.g.s.s.g.k.7.g.9.].qXa ,                 ",
"              O < < < O .   . e ! R.<X Xr.l.g.8.g.y.y.y.y.y.u.y.g.g.s.g.g.s.g.s.s.s.s.s.s.s.s.s.8.k.0.9.m.fXsXa                 ",
"              O 2 < < 1         0 Y 6X$Xm.D.j.9.g.g.g.g.y.y.u.y.y.y.y.y.y.g.g.s.g.g.g.g.s.s.s.s.7.H.0.e.,XE.sXr               O ",
"                O < < < <     o . % M 4XaXm.4.c.s.g.g.g.y.y.y.a.a.p.a.p.y.y.y.g.g.g.g.g.g.s.g.g.l.7. X_.5X#., o             O O ",
"                  O O O         & . . y Q !.;Xe.f.s.s.g.g.y.y.t.p.B.p.p.a.y.y.g.y.0.0.g.g.j.g.0.n.;XwX4XD : .           O O O O ",
"O                               < O . . , N ] $X6.m.A.A.r.r.l.l.p.a.t.t.y.y.y.g.g.h.h.0.7.7.r.J.-XE.T r . . ; %         O O O O ",
"O                               < 1 + %   . e b #.W.qX-X).b.r.l.h.h.g.y.y.g.g.l.D.r.v.).1X>X@X!.E d . . & O             O O O O ",
"                                1 < O         . . s I #.5X$X`.M.0.0.y.l.l.A.n.m.'.%X0XuX6X..M , o X     1 h +           O O O O ",
"        O                         O O       o .   . . ; a A / { >.-.,.]._.!.!.E.@...I b e . .     X   O < < < #                 ",
"        O O O                     # 3     @     # .     . . o o , e y s s a r e o o = o         X     7 7 O O <                 ",
"        O O O O O           O   @           O O < < O O + . . . . . . . . .     o               < 2 @     @ 2 O < O             ",
"        O O O O O         O O O       - X     < 4 4 4 4 1 < O < g g f f 4 < O                 2 f 4   X X     < < O             "
};
