/* XPM */
static char *wall1703684392[] = {
/* columns rows colors chars-per-pixel */
"64 64 7 1 ",
"  c black",
". c #0F0C32",
"X c #16124A",
"o c #1D1963",
"O c #282288",
"+ c #2C2596",
"@ c #372EBA",
/* pixels */
"                                                                ",
"                                                                ",
"                                                                ",
"                                                                ",
"    .ooooooooooooooooooooooooooooooooooooooooooooooooooooooX    ",
"    o@@@@@@@@@@@@@@@@@@@@@@@@@@@@@@@@@@@@@@@@@@@@@@@@@@@@@@O    ",
"    o@@@@@@@@@@@@@@@@@@@@@@@@@@@@@@@@@@@@@@@@@@@@@@@@@@@@@@O    ",
"    o@@@@@@@@@@@@@@@@@@@@@@@@@@@@@@@@@@@@@@@@@@@@@@@@@@@@@@O    ",
"    o@@@                                                @@@O    ",
"    o@@@                                                @@@O    ",
"    o@@@                                                @@@O    ",
"    o@@@                                                @@@O    ",
"    o@@@                                                @@@O    ",
"    o@@@                                                @@@O    ",
"    o@@@                                                @@@O    ",
"    o@@@                                                @@@O    ",
"    o@@@                                                @@@O    ",
"    o@@@                                                @@@O    ",
"    o@@@                                                @@@O    ",
"    o@@@                                                @@@O    ",
"    o@@@                                                @@@O    ",
"    o@@@                                                @@@O    ",
"    o@@@                                                @@@O    ",
"    o@@@                                                @@@O    ",
"    o@@@                                                @@@O    ",
"    o@@@                                                @@@O    ",
"    o@@@                                                @@@O    ",
"    o@@@                                                @@@O    ",
"    o@@@                                                @@@O    ",
"    o@@@                                                @@@O    ",
"    o@@@                                                @@@O    ",
"    o@@@                                                @@@O    ",
"    o@@@                                                @@@O    ",
"    o@@@                                                @@@O    ",
"    o@@@                                                @@@O    ",
"    o@@@                                                @@@O    ",
"    o@@@                                                @@@O    ",
"    o@@@                                                @@@O    ",
"    o@@@                                                @@@O    ",
"    o@@@                                                @@@O    ",
"    o@@@                                                @@@O    ",
"    o@@@                                                @@@O    ",
"    o@@@                                                @@@O    ",
"    o@@@                                                @@@O    ",
"    o@@@                                                @@@O    ",
"    o@@@                                                @@@O    ",
"    o@@@                                                @@@O    ",
"    o@@@                                                @@@O    ",
"    o@@@                                                @@@O    ",
"    o@@@                                                @@@O    ",
"    o@@@                                                @@@O    ",
"    o@@@                                                @@@O    ",
"    o@@@                                                @@@O    ",
"    o@@@                                                @@@O    ",
"    o@@@                                                @@@O    ",
"    o@@@                                                @@@O    ",
"    o@@@OOOOOOOOOOOOOOOOOOOOOOOOOOOOOOOOOOOOOOOOOOOOOOOO@@@O    ",
"    o@@@@@@@@@@@@@@@@@@@@@@@@@@@@@@@@@@@@@@@@@@@@@@@@@@@@@@O    ",
"    o@@@@@@@@@@@@@@@@@@@@@@@@@@@@@@@@@@@@@@@@@@@@@@@@@@@@@@O    ",
"    X++++++++++++++++++++++++++++++++++++++++++++++++++++++o    ",
"                                                                ",
"                                                                ",
"                                                                ",
"                                                                "
};
